<?xml version="1.0" standalone="no"?><!DOCTYPE svg PUBLIC "-//W3C//DTD SVG 1.1//EN" "http://www.w3.org/Graphics/SVG/1.1/DTD/svg11.dtd"><svg t="1512812019177" class="icon" style="" viewBox="0 0 1024 1024" version="1.1" xmlns="http://www.w3.org/2000/svg" p-id="1569" xmlns:xlink="http://www.w3.org/1999/xlink" width="64" height="64"><defs><style type="text/css"></style></defs><path d="M229.514277 342.413604c-58.944484 0-106.727767 47.783283-106.727767 106.727767s47.783283 106.727767 106.727767 106.727767S336.242044 508.085854 336.242044 449.14137 288.458761 342.413604 229.514277 342.413604zM229.522464 520.29492c-39.240723 0-71.151503-31.91078-71.151503-71.151503s31.91078-71.151503 71.151503-71.151503 71.151503 31.91078 71.151503 71.151503S268.763187 520.29492 229.522464 520.29492z" p-id="1570"></path><path d="M514.121314 342.413604c-58.944484 0-106.727767 47.783283-106.727767 106.727767s47.783283 106.727767 106.727767 106.727767c58.944484 0 106.727767-47.783283 106.727767-106.727767S573.065797 342.413604 514.121314 342.413604zM514.1295 520.29492c-39.240723 0-71.151503-31.91078-71.151503-71.151503s31.91078-71.151503 71.151503-71.151503 71.151503 31.91078 71.151503 71.151503S553.370223 520.29492 514.1295 520.29492z" p-id="1571"></path><path d="M798.729373 342.413604c-58.944484 0-106.727767 47.783283-106.727767 106.727767s47.783283 106.727767 106.727767 106.727767c58.944484 0 106.727767-47.783283 106.727767-106.727767S857.672834 342.413604 798.729373 342.413604zM798.736537 520.29492c-39.240723 0-71.151503-31.91078-71.151503-71.151503s31.91078-71.151503 71.151503-71.151503 71.151503 31.91078 71.151503 71.151503S837.978283 520.29492 798.736537 520.29492z" p-id="1572"></path></svg>